<svg xmlns="http://www.w3.org/2000/svg" xmlns:xlink="http://www.w3.org/1999/xlink" width="33.753" height="37" viewBox="0 0 33.753 37">
  <defs>
    <clipPath id="clip-path">
      <rect id="Rectangle_16" width="33.753" height="37" fill="#e69138"/>
    </clipPath>
  </defs>
  <g id="active-icon" transform="translate(0 0)">
    <g id="Group_15" transform="translate(0 0)" clip-path="url(#clip-path)">
      <path id="Path_12" d="M2.4,21.56c-.415,0-.869,0-1.323,0A.974.974,0,0,1,.089,21a.956.956,0,0,1,.2-1.079c1.1-1.322,2.194-2.65,3.3-3.972a1.044,1.044,0,0,1,1.75.007c1.1,1.32,2.2,2.649,3.3,3.97a.97.97,0,0,1-.786,1.649c-.427-.007-.855,0-1.4,0,.149.852.236,1.664.437,2.447A11.6,11.6,0,1,0,19.371,9.545a11.351,11.351,0,0,0-10.7,4.768c-.311.411-.411.424-.728.046-.673-.8-1.336-1.617-2.02-2.411a.455.455,0,0,1,0-.7A15.65,15.65,0,0,1,15.755,5.6c.272-.044.368-.134.354-.4-.019-.373,0-.747,0-1.178-.542,0-1.048-.014-1.553,0A2.017,2.017,0,1,1,14.49,0c2.419.008,4.839,0,7.258.008a1.892,1.892,0,0,1,1.805,1.135,1.924,1.924,0,0,1-.208,2.092,2,2,0,0,1-1.681.8c-.5,0-.991,0-1.513,0V5.556a15.711,15.711,0,0,1,7.565,3.181c.572-.575,1.13-1.137,1.691-1.7A2.018,2.018,0,1,1,32.26,9.888c-.558.562-1.123,1.118-1.712,1.7a15.654,15.654,0,0,1,3.075,11.663A14.536,14.536,0,0,1,30.04,31.4c-4.435,4.961-9.989,6.775-16.352,4.854C6.6,34.109,3.061,28.919,2.4,21.56" transform="translate(0 0)" fill="#e69138"/>
      <path id="Path_13" d="M28.143,27.5a4.345,4.345,0,0,0,.735-.38c1.343-1.051,2.668-2.125,4.008-3.179a1.268,1.268,0,0,1,2.078.646,1.341,1.341,0,0,1-.34,1.191c-1.075,1.341-2.148,2.684-3.205,4.039a1.06,1.06,0,0,0-.206.61A3.147,3.147,0,1,1,28.091,27.4Z" transform="translate(-9.983 -9.464)" fill="#e69138"/>
    </g>
  </g>
</svg>
