<svg xmlns="http://www.w3.org/2000/svg" width="15.058" height="15.116" viewBox="0 0 15.058 15.116">
  <defs>
    <clipPath id="clip-path">
      <rect id="Rectangle_29" width="15.058" height="15.116"/>
    </clipPath>
  </defs>
  <g id="calendar-icon" transform="translate(0 0)">
    <g id="Group_32" transform="translate(0 0)" clip-path="url(#clip-path)">
      <path id="Path_44" d="M1.864,1.314c0-.2,0-.372,0-.548A.747.747,0,0,1,2.661,0a.738.738,0,0,1,.765.774c0,.17,0,.341,0,.525h1.7c0-.165,0-.333,0-.5A.748.748,0,0,1,5.9,0a.743.743,0,0,1,.78.8c0,.164,0,.329,0,.505h1.7c0-.166,0-.335,0-.5A.781.781,0,1,1,9.945.8c0,.164,0,.329,0,.505h1.7c0-.17,0-.339,0-.508A.741.741,0,0,1,12.423,0a.75.75,0,0,1,.78.8c0,.164,0,.328,0,.526a3.987,3.987,0,0,1,.559,0,1.486,1.486,0,0,1,1.294,1.513q0,2.89,0,5.78c0,1.655,0,3.31,0,4.965A1.489,1.489,0,0,1,13.8,15.095a1.924,1.924,0,0,1-.335.021q-5.925,0-11.85,0a1.5,1.5,0,0,1-1.6-1.6C.009,10,.022,6.474,0,2.951A1.553,1.553,0,0,1,1.639,1.313c.064,0,.129,0,.224,0M14,4.494H1.071v8.968c0,.461.13.592.589.592H13.407c.065,0,.13,0,.195,0a.431.431,0,0,0,.39-.375A1.489,1.489,0,0,0,14,13.5v-9" transform="translate(0 0)"/>
      <path id="Path_45" d="M5.963,13.132c-.277,0-.555,0-.833,0a.674.674,0,0,1-.7-.674c-.009-.23-.008-.461,0-.691a.671.671,0,0,1,.69-.681q.841-.01,1.683,0a.674.674,0,0,1,.7.692c.005.224.007.449,0,.673a.675.675,0,0,1-.69.681c-.284.005-.568,0-.851,0" transform="translate(-2.213 -5.54)"/>
      <path id="Path_46" d="M21.072,13.132c-.272,0-.543,0-.816,0a.678.678,0,0,1-.71-.7c0-.218,0-.437,0-.655a.674.674,0,0,1,.7-.694q.842-.008,1.684,0a.672.672,0,0,1,.692.68c.008.23.009.461,0,.69a.674.674,0,0,1-.7.676c-.283,0-.567,0-.851,0" transform="translate(-9.771 -5.54)"/>
      <path id="Path_47" d="M5.965,16.6c.283,0,.567,0,.85,0a.666.666,0,0,1,.687.663c.009.236.009.472,0,.708a.653.653,0,0,1-.647.665q-.885.022-1.771,0a.654.654,0,0,1-.651-.661c-.01-.235-.009-.472,0-.708a.668.668,0,0,1,.7-.668c.277,0,.555,0,.833,0" transform="translate(-2.213 -8.3)"/>
      <path id="Path_48" d="M21.085,16.6c.278,0,.556,0,.833,0a.671.671,0,0,1,.7.687c.007.224.007.449,0,.673a.661.661,0,0,1-.671.68q-.868.017-1.736,0a.662.662,0,0,1-.665-.686c-.005-.224-.006-.449,0-.673a.671.671,0,0,1,.688-.681h.851" transform="translate(-9.771 -8.299)"/>
      <path id="Path_49" d="M13.533,13.13c-.272,0-.543,0-.815,0A.671.671,0,0,1,12,12.424c0-.219,0-.437,0-.655a.66.66,0,0,1,.662-.686q.868-.014,1.736,0a.657.657,0,0,1,.662.667c0,.236.005.472,0,.708a.667.667,0,0,1-.662.669h-.868" transform="translate(-6 -5.539)"/>
      <path id="Path_50" d="M13.53,18.642c-.271,0-.543,0-.815,0A.67.67,0,0,1,12,17.917c0-.224,0-.449,0-.673a.65.65,0,0,1,.646-.643q.886-.011,1.772,0a.65.65,0,0,1,.641.648c.007.241.006.484,0,.726a.651.651,0,0,1-.647.662c-.295.014-.59,0-.885,0v0" transform="translate(-6 -8.298)"/>
      <path id="Path_51" d="M5.962,24.146c-.278,0-.555,0-.833,0a.669.669,0,0,1-.7-.672c-.009-.236-.01-.472,0-.708a.659.659,0,0,1,.672-.658q.859-.011,1.719,0a.662.662,0,0,1,.679.669c.008.23.007.46,0,.691a.669.669,0,0,1-.691.678c-.283,0-.567,0-.85,0" transform="translate(-2.213 -11.051)"/>
      <path id="Path_52" d="M13.532,24.146c-.284,0-.567,0-.851,0a.659.659,0,0,1-.68-.683c0-.236-.006-.472,0-.708a.64.64,0,0,1,.626-.643q.9-.019,1.807,0a.639.639,0,0,1,.625.643c.007.247.007.5,0,.743a.658.658,0,0,1-.644.647l-.054,0h-.832" transform="translate(-5.999 -11.051)"/>
    </g>
  </g>
</svg>
