<svg xmlns="http://www.w3.org/2000/svg" xmlns:xlink="http://www.w3.org/1999/xlink" width="14" height="14.053" viewBox="0 0 14 14.053">
  <defs>
    <clipPath id="clip-path">
      <rect id="Rectangle_29" width="14" height="14.053" fill="#838383"/>
    </clipPath>
  </defs>
  <g id="Group_32" clip-path="url(#clip-path)">
    <path id="Path_44" d="M1.733,1.222c0-.182,0-.346,0-.509A.7.7,0,0,1,2.474,0a.686.686,0,0,1,.712.72c0,.159,0,.317,0,.489H4.762c0-.153,0-.31,0-.467A.7.7,0,0,1,5.489,0a.691.691,0,0,1,.726.74c0,.153,0,.306,0,.47H7.793c0-.155,0-.312,0-.469a.726.726,0,1,1,1.453,0c0,.153,0,.306,0,.47h1.576c0-.158,0-.315,0-.473A.689.689,0,0,1,11.55,0a.7.7,0,0,1,.726.744c0,.152,0,.305,0,.489a3.706,3.706,0,0,1,.52,0A1.381,1.381,0,0,1,14,2.644q0,2.687,0,5.374c0,1.539,0,3.077,0,4.616a1.384,1.384,0,0,1-1.173,1.4,1.788,1.788,0,0,1-.312.019q-5.509,0-11.017,0A1.4,1.4,0,0,1,.008,12.569C.008,9.294.02,6.019,0,2.744A1.444,1.444,0,0,1,1.524,1.221c.06,0,.12,0,.209,0m11.28,2.957H1v8.338c0,.428.121.55.548.55h10.92c.06,0,.121,0,.181,0a.4.4,0,0,0,.362-.349,1.384,1.384,0,0,0,0-.165V4.179" transform="translate(0 0)" fill="#838383"/>
    <path id="Path_45" d="M5.855,12.987c-.258,0-.516,0-.774,0a.626.626,0,0,1-.648-.627c-.008-.214-.007-.429,0-.642a.624.624,0,0,1,.642-.633q.782-.009,1.565,0a.627.627,0,0,1,.649.644c.005.208.006.417,0,.626a.628.628,0,0,1-.642.634c-.264,0-.528,0-.791,0" transform="translate(-2.369 -5.929)" fill="#838383"/>
    <path id="Path_46" d="M20.964,12.987c-.253,0-.505,0-.758,0a.63.63,0,0,1-.66-.649c0-.2,0-.406,0-.609a.627.627,0,0,1,.647-.645q.783-.008,1.566,0a.625.625,0,0,1,.643.632c.007.214.008.429,0,.642a.626.626,0,0,1-.647.629c-.264,0-.528,0-.791,0" transform="translate(-10.458 -5.929)" fill="#838383"/>
    <path id="Path_47" d="M5.857,16.6c.264,0,.527,0,.791,0a.62.62,0,0,1,.639.616c.008.219.008.439,0,.659a.608.608,0,0,1-.6.618q-.823.02-1.647,0a.608.608,0,0,1-.606-.615c-.009-.219-.009-.439,0-.659a.621.621,0,0,1,.651-.621c.258,0,.516,0,.774,0" transform="translate(-2.368 -8.883)" fill="#838383"/>
    <path id="Path_48" d="M20.976,16.6c.258,0,.516,0,.774,0a.624.624,0,0,1,.651.639c.006.208.007.417,0,.626a.615.615,0,0,1-.624.632q-.807.016-1.614,0a.616.616,0,0,1-.618-.637c0-.208-.005-.417,0-.626a.624.624,0,0,1,.64-.633h.791" transform="translate(-10.457 -8.883)" fill="#838383"/>
    <path id="Path_49" d="M13.425,12.986c-.252,0-.505,0-.758,0A.624.624,0,0,1,12,12.33c0-.2,0-.406,0-.609a.614.614,0,0,1,.616-.637q.807-.013,1.614,0a.611.611,0,0,1,.615.621c0,.219.005.439,0,.659a.621.621,0,0,1-.615.622h-.807" transform="translate(-6.422 -5.928)" fill="#838383"/>
    <path id="Path_50" d="M13.422,18.5c-.252,0-.505,0-.758,0A.623.623,0,0,1,12,17.824c0-.208,0-.417,0-.626a.6.6,0,0,1,.6-.6q.823-.01,1.647,0a.6.6,0,0,1,.6.6c.007.225.006.45,0,.675a.605.605,0,0,1-.6.615c-.274.013-.549,0-.823,0v0" transform="translate(-6.421 -8.881)" fill="#838383"/>
    <path id="Path_51" d="M5.854,24c-.258,0-.516,0-.774,0a.622.622,0,0,1-.648-.625c-.008-.219-.009-.439,0-.658a.613.613,0,0,1,.625-.612q.8-.01,1.6,0a.615.615,0,0,1,.632.622c.007.214.007.428,0,.642a.622.622,0,0,1-.642.63c-.264,0-.527,0-.791,0" transform="translate(-2.368 -11.828)" fill="#838383"/>
    <path id="Path_52" d="M13.424,24c-.264,0-.527,0-.791,0A.612.612,0,0,1,12,23.367c0-.22-.006-.439,0-.659a.6.6,0,0,1,.582-.6q.84-.017,1.68,0a.594.594,0,0,1,.582.6c.007.23.007.461,0,.691a.611.611,0,0,1-.6.6h-.823" transform="translate(-6.421 -11.828)" fill="#838383"/>
  </g>
</svg>
