<svg xmlns="http://www.w3.org/2000/svg" xmlns:xlink="http://www.w3.org/1999/xlink" width="13.761" height="13.76" viewBox="0 0 13.761 13.76">
  <defs>
    <clipPath id="clip-path">
      <rect id="Rectangle_25" width="13.761" height="13.76" fill="#e69138"/>
    </clipPath>
  </defs>
  <g id="Group_26" clip-path="url(#clip-path)">
    <path id="Path_28" d="M12.319,0h4.7c.01.008.018.02.029.023a1.459,1.459,0,0,1,1.193,1.586v4.68a1.463,1.463,0,0,1-1.575,1.572q-2,0-3.992,0a1.465,1.465,0,0,1-1.568-1.58V1.7a1.49,1.49,0,0,1,1.2-1.681S12.315,0,12.319,0" transform="translate(-4.483 0)" fill="#e69138"/>
    <path id="Path_29" d="M0,16.525V11.1a.512.512,0,0,0,.038-.082A1.432,1.432,0,0,1,1.45,9.891c.929-.014,1.859-.017,2.789,0a1.427,1.427,0,0,1,1.444,1.429q.019,2.493,0,4.987a1.44,1.44,0,0,1-1.457,1.437q-1.386.005-2.771,0a1.454,1.454,0,0,1-1.409-1.08c-.013-.048-.032-.094-.048-.141" transform="translate(0 -3.988)" fill="#e69138"/>
    <path id="Path_30" d="M4.472,0c.04.015.079.033.12.045a1.452,1.452,0,0,1,1.094,1.4c.009.694.011,1.387,0,2.081A1.447,1.447,0,0,1,4.229,4.962q-1.384.011-2.768,0A1.451,1.451,0,0,1,.041,3.848.939.939,0,0,0,0,3.746V1.223c.014-.041.032-.08.043-.121A1.431,1.431,0,0,1,.82.151c.129-.062.268-.1.4-.151Z" transform="translate(0 0)" fill="#e69138"/>
    <path id="Path_31" d="M1.223,0C1.088.049.949.089.82.151A1.429,1.429,0,0,0,.043,1.1c-.012.041-.029.081-.043.121V0Z" transform="translate(0 0)" fill="#e69138"/>
    <path id="Path_32" d="M14.659,19.71c-.688,0-1.375,0-2.063,0a1.449,1.449,0,0,1-1.49-1.462c-.009-.682-.01-1.363,0-2.044a1.449,1.449,0,0,1,1.478-1.456q2.091-.005,4.183,0a1.45,1.45,0,0,1,1.471,1.482q.005,1,0,2.005a1.45,1.45,0,0,1-1.478,1.474c-.7,0-1.4,0-2.1,0" transform="translate(-4.48 -5.952)" fill="#e69138"/>
  </g>
</svg>
