<svg xmlns="http://www.w3.org/2000/svg" xmlns:xlink="http://www.w3.org/1999/xlink" width="31.844" height="38.074" viewBox="0 0 31.844 38.074">
  <defs>
    <clipPath id="clip-path">
      <rect id="Rectangle_19" width="31.844" height="38.074" fill="#e69138"/>
    </clipPath>
  </defs>
  <g id="Group_24" clip-path="url(#clip-path)">
    <path id="Path_25" d="M15.157,38.074,14.571,38c-.4-.049-.792-.1-1.186-.162A15.922,15.922,0,0,1,.944,16.735a16.336,16.336,0,0,1,1.738-3.456L2,12.6q-.7-.7-1.4-1.41A1.972,1.972,0,0,1,.132,9.061,1.953,1.953,0,0,1,1.856,7.723a2.021,2.021,0,0,1,.217-.012,2.023,2.023,0,0,1,1.469.653c.5.5.993,1,1.495,1.5l.331.332a15.989,15.989,0,0,1,8.483-3.9V4.083c-.147,0-1.052.007-1.358.007-.4,0-.8,0-1.2-.015A2.036,2.036,0,1,1,11.358,0q.5-.005,1,0s7.072,0,8.077,0a2.038,2.038,0,1,1,.123,4.073c-.174.009-.348.011-.523.011l-.664,0H17.988V6.3A16.008,16.008,0,0,1,26.475,10.2l.345-.346c.507-.511,1.01-1.018,1.519-1.518a2.115,2.115,0,0,1,1.477-.624,2.045,2.045,0,0,1,1.4,3.511c-.451.46-.908.915-1.365,1.371l-.689.688a16.079,16.079,0,0,1,2.483,11.31,15.853,15.853,0,0,1-12.614,13.15c-.53.1-1.067.169-1.587.236-.241.031-.481.063-.721.1l-.035,0Zm.76-27.833A11.874,11.874,0,0,0,4.081,22.05,11.836,11.836,0,0,0,15.888,33.931,11.877,11.877,0,0,0,27.764,22.117,11.868,11.868,0,0,0,15.936,10.241l-.019-.5Z" transform="translate(0 0)" fill="#e69138"/>
    <path id="Path_26" d="M26.844,39.722A5.134,5.134,0,0,1,22,32.9a5.029,5.029,0,0,1,2.67-2.935.42.42,0,0,0,.127-.076.537.537,0,0,0,.009-.153c-.019-.769-.014-1.547-.009-2.3l0-.482a2.043,2.043,0,1,1,4.081,0c0,.311,0,.622,0,.933v.5l0,.428c0,.346.008.7-.011,1.065,0,.006,0,.013,0,.018s.037.021.07.036a5.121,5.121,0,0,1,.378,9.141,5.021,5.021,0,0,1-2.476.655m0-6.2A1.041,1.041,0,0,0,26.1,35.3a1.037,1.037,0,0,0,.736.315,1.068,1.068,0,0,0,1.051-1.025,1.051,1.051,0,0,0-1.027-1.067l-.014-.5Z" transform="translate(-10.917 -12.477)" fill="#e69138"/>
  </g>
</svg>
