<svg id="notify-icon" xmlns="http://www.w3.org/2000/svg" xmlns:xlink="http://www.w3.org/1999/xlink" width="23.453" height="23.464" viewBox="0 0 23.453 23.464">
  <defs>
    <clipPath id="clip-path">
      <rect id="Rectangle_46" width="23.453" height="23.464" fill="#3f454d"/>
    </clipPath>
  </defs>
  <g id="Group_46" clip-path="url(#clip-path)">
    <path id="Path_67" d="M23.92,4.616a5.6,5.6,0,0,0-.1-1.3A4.265,4.265,0,0,0,19.812.039l-.075,0q-4.649,0-9.3,0A.79.79,0,0,1,10.023,0H9.869a10.945,10.945,0,0,0-1.28.2A5.845,5.845,0,0,0,4.805,3.822.619.619,0,0,1,4.1,4.3c-.524-.028-1.051,0-1.577-.008a3.293,3.293,0,0,0-1.028.11A1.286,1.286,0,0,0,.516,5.61c0,.019,0,.037,0,.056,0,.166,0,.334,0,.5v.022A1.242,1.242,0,0,0,1.331,7.3,1.477,1.477,0,0,0,2,7.435c.615,0,1.229,0,1.845,0,.568,0,.591.026.593.577,0,.513,0,1.025,0,1.538,0,.582,0,.582-.567.585-.641,0-1.282-.017-1.922.007a1.375,1.375,0,0,0-1.438,1.32c0,.005,0,.012,0,.017v.486a1.074,1.074,0,0,0,.268.77A1.656,1.656,0,0,0,2,13.288c.667,0,1.334,0,2,0,.4,0,.432.039.435.447,0,.577,0,1.154,0,1.73,0,.476-.044.515-.537.52-.666,0-1.334-.014-2,.006A1.378,1.378,0,0,0,.512,17.257h0c0,.182,0,.363,0,.545v.009a1.216,1.216,0,0,0,.807,1.146,2.186,2.186,0,0,0,.9.185c.654,0,1.309.012,1.962,0a.535.535,0,0,1,.592.414,5.864,5.864,0,0,0,5.767,3.915c2.912-.042,5.824,0,8.736-.015A5.024,5.024,0,0,0,20.8,23.3a4.434,4.434,0,0,0,3.127-4.48q0-7.1,0-14.2M20.94,18.755a1.519,1.519,0,0,1-1.727,1.719H10.591a2.942,2.942,0,0,1-3.156-3.141q0-5.62,0-11.24a2.94,2.94,0,0,1,3.155-3.142h8.622A1.517,1.517,0,0,1,20.94,4.667q0,3.522,0,7.044t0,7.044" transform="translate(-0.472 -0.004)" fill="#3f454d"/>
    <path id="Path_68" d="M133.312,0a.222.222,0,0,1,.011.064l-6.681.013c-.922,0-1.843,0-2.765,0-.115,0-.258.074-.347-.073Z" transform="translate(-113.979)" fill="#3f454d"/>
    <path id="Path_69" d="M.069,73.057l-.034-.006H0v-.539a.045.045,0,0,1,.062-.01q0,.277.006.555" transform="translate(0 -66.889)" fill="#3f454d"/>
    <path id="Path_70" d="M0,223.1a.209.209,0,0,0,.069-.006q0,.277-.006.554l-.033.008L0,223.64Z" transform="translate(0 -205.846)" fill="#3f454d"/>
    <path id="Path_71" d="M0,148.129l.027-.027.034.015q0,.242,0,.485l-.034.015L0,148.591Z" transform="translate(0 -136.651)" fill="#3f454d"/>
    <path id="Path_72" d="M135.436,73.193a1.473,1.473,0,0,1-1.543,1.469c-.769,0-1.539,0-2.309,0s-1.54,0-2.309,0a1.459,1.459,0,1,1,.014-2.915q2.309-.008,4.618,0a1.472,1.472,0,0,1,1.529,1.447" transform="translate(-117.887 -66.195)" fill="#3f454d"/>
    <path id="Path_73" d="M123.892,214.925c.037-.189.168-.2.33-.2q3.869.007,7.737,0c.127,0,.168.05.19.158a.656.656,0,0,1-.675.8c-.975,0-1.95,0-2.925,0H124.61a.656.656,0,0,1-.7-.536c-.028-.066.011-.139-.023-.2Z" transform="translate(-114.313 -198.128)" fill="#3f454d"/>
    <path id="Path_74" d="M123.892,217.581c.046.064.017.136.023.2l-.011,0h-.012Z" transform="translate(-114.313 -200.758)" fill="#3f454d"/>
    <path id="Path_75" d="M138.053,119.263a4.94,4.94,0,0,1-.322-1.373c-.063-.517-.03-1.038-.076-1.555a2.83,2.83,0,0,0-.755-1.766,2.949,2.949,0,0,0-1.091-.714c-.079-.031-.1-.054-.061-.14a.757.757,0,0,0,.065-.346,1.042,1.042,0,0,0-.635-.995,1.053,1.053,0,0,0-1.184.2,1.019,1.019,0,0,0-.272,1.124c.036.105.013.127-.079.164a2.767,2.767,0,0,0-1.841,2.522c-.04.5-.011,1-.072,1.492a3.865,3.865,0,0,1-.58,1.833h7.162a2.281,2.281,0,0,1-.26-.449m-3.841-5.585c0-.022,0-.044-.021-.055a.6.6,0,0,1,.135-.714.611.611,0,0,1,.7-.069.6.6,0,0,1,.272.674c-.016.068-.061.139.052.18a2.946,2.946,0,0,0-1.143-.017" transform="translate(-121.011 -103.595)" fill="#3f454d"/>
    <path id="Path_76" d="M162.614,232.913a1.258,1.258,0,0,1-1.222-.979c-.017-.08-.007-.1.078-.1q1.15,0,2.3,0c.106,0,.094.048.078.116a1.257,1.257,0,0,1-1.234.964" transform="translate(-148.908 -213.908)" fill="#3f454d"/>
    <path id="Path_77" d="M170.48,129.76c-.019-.014-.009-.039-.021-.055.026.011.023.033.021.055" transform="translate(-157.28 -119.677)" fill="#3f454d"/>
    <path id="Path_78" d="M170.234,129.76c-.016.019-.035.045-.042,0,0-.006.017-.033.021-.053.026.011.023.033.021.055" transform="translate(-157.034 -119.677)" fill="#3f454d"/>
  </g>
</svg>
