<svg xmlns="http://www.w3.org/2000/svg" xmlns:xlink="http://www.w3.org/1999/xlink" width="32.915" height="39.305" viewBox="0 0 32.915 39.305">
  <defs>
    <clipPath id="clip-path">
      <rect id="Rectangle_18" width="32.915" height="39.305" fill="#e69138"/>
    </clipPath>
  </defs>
  <g id="private-ion" transform="translate(0 0)">
    <g id="Group_21" transform="translate(0 0)" clip-path="url(#clip-path)">
      <path id="Path_21" d="M32.907,28.527l0-5.009A1.762,1.762,0,0,0,30.989,21.6q-11.334-.007-22.668,0a1.769,1.769,0,0,0-1.927,1.945c0,.535,0,1.07,0,1.624v.275h-.36c-.6-.005-1.179-.005-1.761,0a4.261,4.261,0,0,0-4.18,3.432A5.441,5.441,0,0,0,.007,30q-.014,4.858,0,9.715A4.29,4.29,0,0,0,4.59,44.278h1.8c.009.067.019.128.028.194a7.357,7.357,0,0,0,.256,1.255,6.729,6.729,0,0,0,5.506,4.858.541.541,0,0,1,.08.028l.166.062h14.4l.066-.024c.194-.057.393-.109.592-.161a7.337,7.337,0,0,0,1.4-.459,6.637,6.637,0,0,0,4.005-6.254c.028-5.085.024-10.255.014-15.25M6.394,35.373v5.373c-.133,0-.27,0-.4,0-.658.01-1.283.019-1.9-.018-.388-.024-.592-.455-.592-.866,0-.886,0-1.775,0-2.666V30.028c0-.829.27-1.094,1.113-1.094h.568c.4.005.814.009,1.226-.009q-.014,3.223,0,6.448m17.072-3.03,1.269,1.279-1.2,1.188-1.269-1.269ZM29.4,28.532q0,7.563,0,15.126A3.358,3.358,0,0,1,26.7,47.091a4.819,4.819,0,0,1-.933.071q-6.129.008-12.262,0a3.373,3.373,0,0,1-3.627-3.64V25.137H21.719v.28c0,.61,0,1.217,0,1.827,0,.2.014.417.028.625a2.916,2.916,0,0,1-.066,1.16,2.635,2.635,0,0,1-.748.829c-.156.138-.317.275-.464.421-.3.3-.6.6-.9.9-.365.365-.724.724-1.084,1.088a1.738,1.738,0,0,0-.014,2.609Q20.325,36.744,22.2,38.6a1.719,1.719,0,0,0,2.547.014c1.212-1.193,2.443-2.424,3.759-3.759a1.72,1.72,0,0,0-.019-2.58q-.6-.6-1.207-1.207c-.634-.634-1.269-1.269-1.894-1.913a.527.527,0,0,1-.133-.3c-.019-1.046-.019-2.088-.014-3.149v-.582H29.4Z" transform="translate(0 -11.369)" fill="#e69138"/>
      <path id="Path_22" d="M26.767,9.659a1.674,1.674,0,0,1-1.8-.043,1.575,1.575,0,0,1-.8-1.359A3.273,3.273,0,0,0,23.23,6,6.137,6.137,0,0,1,21.6,1.9,1.768,1.768,0,0,1,23.24.005a1.7,1.7,0,0,1,1.288.45,1.782,1.782,0,0,1,.563,1.278,3.16,3.16,0,0,0,.838,2.045A6.6,6.6,0,0,1,27.6,7.239c.019.142.028.284.043.426l.014.19a1.777,1.777,0,0,1-.885,1.8" transform="translate(-11.372 0)" fill="#e69138"/>
      <path id="Path_23" d="M40.413,9.575A1.76,1.76,0,0,1,39.4,9.9a1.666,1.666,0,0,1-.734-.17A1.574,1.574,0,0,1,37.682,8.3a3.614,3.614,0,0,0-1.061-2.438A6.049,6.049,0,0,1,35.1,1.853,1.758,1.758,0,0,1,38.041.465a1.69,1.69,0,0,1,.54,1.231,3.393,3.393,0,0,0,.956,2.221A6.223,6.223,0,0,1,41.1,7.241c.019.142.028.284.043.426l.015.18a1.834,1.834,0,0,1-.739,1.728" transform="translate(-18.481 -0.002)" fill="#e69138"/>
      <path id="Path_24" d="M54.647,7.926v.057a1.735,1.735,0,0,1-1.368,1.865,1.753,1.753,0,0,1-.379.043,1.717,1.717,0,0,1-1.577-1.027,1.734,1.734,0,0,1-.156-.692,2.97,2.97,0,0,0-.8-2,6.594,6.594,0,0,1-1.614-3.035,8.313,8.313,0,0,1-.142-1.311A1.744,1.744,0,0,1,50.239,0a1.768,1.768,0,0,1,1.856,1.581c.014.123.028.251.043.379a2.655,2.655,0,0,0,.161.791,6.535,6.535,0,0,0,.781,1.193l.085.113a6.029,6.029,0,0,1,1.482,3.864" transform="translate(-25.593 0)" fill="#e69138"/>
    </g>
  </g>
</svg>
