<svg xmlns="http://www.w3.org/2000/svg" width="32.915" height="39.305" viewBox="0 0 32.915 39.305">
  <defs>
    <clipPath id="clip-path">
      <rect id="Rectangle_18" width="32.915" height="39.305" fill="#fff"/>
    </clipPath>
  </defs>
  <g id="private-ion" transform="translate(0 0)" opacity="0.33">
    <g id="Group_21" transform="translate(0 0)" clip-path="url(#clip-path)">
      <path id="Path_21" d="M.007,28.527l0-5.009A1.762,1.762,0,0,1,1.924,21.6q11.334-.007,22.668,0a1.769,1.769,0,0,1,1.927,1.945c0,.535,0,1.07,0,1.624v.275h.36c.6-.005,1.179-.005,1.761,0a4.261,4.261,0,0,1,4.18,3.432A5.441,5.441,0,0,1,32.906,30q.014,4.858,0,9.715a4.29,4.29,0,0,1-4.588,4.559h-1.8c-.009.067-.019.128-.028.194a7.357,7.357,0,0,1-.256,1.255,6.729,6.729,0,0,1-5.506,4.858.541.541,0,0,0-.08.028l-.166.062H6.081l-.066-.024c-.194-.057-.393-.109-.592-.161a7.337,7.337,0,0,1-1.4-.459A6.637,6.637,0,0,1,.021,43.777C-.007,38.692,0,33.522.007,28.527m26.513,6.846v5.373c.133,0,.27,0,.4,0,.658.01,1.283.019,1.9-.018.388-.024.592-.455.592-.866,0-.886,0-1.775,0-2.666V30.028c0-.829-.27-1.094-1.113-1.094h-.568c-.4.005-.814.009-1.226-.009q.014,3.223,0,6.448M9.447,32.343,8.178,33.621l1.2,1.188,1.269-1.269ZM3.515,28.532q0,7.563,0,15.126a3.358,3.358,0,0,0,2.689,3.432,4.818,4.818,0,0,0,.933.071q6.129.008,12.262,0a3.373,3.373,0,0,0,3.627-3.64V25.137H11.194v.28c0,.61,0,1.217,0,1.827,0,.2-.014.417-.028.625a2.916,2.916,0,0,0,.066,1.16,2.635,2.635,0,0,0,.748.829c.156.138.317.275.464.421.3.3.6.6.9.9.365.365.724.724,1.084,1.088a1.738,1.738,0,0,1,.014,2.609q-1.854,1.868-3.726,3.726a1.719,1.719,0,0,1-2.547.014c-1.212-1.193-2.443-2.424-3.759-3.759a1.72,1.72,0,0,1,.019-2.58q.6-.6,1.207-1.207C6.27,30.435,6.9,29.8,7.53,29.156a.527.527,0,0,0,.133-.3c.019-1.046.019-2.088.014-3.149v-.582H3.515Z" transform="translate(0.001 -11.369)" fill="#fff"/>
      <path id="Path_22" d="M22.49,9.659a1.674,1.674,0,0,0,1.8-.043,1.575,1.575,0,0,0,.8-1.359A3.273,3.273,0,0,1,26.026,6,6.137,6.137,0,0,0,27.66,1.9,1.768,1.768,0,0,0,26.017.005a1.7,1.7,0,0,0-1.288.45,1.782,1.782,0,0,0-.563,1.278,3.16,3.16,0,0,1-.838,2.045,6.6,6.6,0,0,0-1.667,3.461c-.019.142-.028.284-.043.426l-.014.19a1.777,1.777,0,0,0,.885,1.8" transform="translate(-4.97 0)" fill="#fff"/>
      <path id="Path_23" d="M35.848,9.575a1.76,1.76,0,0,0,1.013.322,1.666,1.666,0,0,0,.734-.17A1.574,1.574,0,0,0,38.58,8.3a3.614,3.614,0,0,1,1.061-2.438,6.049,6.049,0,0,0,1.524-4.01A1.758,1.758,0,0,0,38.22.465,1.69,1.69,0,0,0,37.68,1.7a3.393,3.393,0,0,1-.956,2.221,6.223,6.223,0,0,0-1.557,3.324c-.019.142-.028.284-.043.426l-.015.18a1.834,1.834,0,0,0,.739,1.728" transform="translate(-24.866 -0.002)" fill="#fff"/>
      <path id="Path_24" d="M48.605,7.926v.057a1.735,1.735,0,0,0,1.368,1.865,1.753,1.753,0,0,0,.379.043,1.717,1.717,0,0,0,1.577-1.027,1.734,1.734,0,0,0,.156-.692,2.97,2.97,0,0,1,.8-2A6.594,6.594,0,0,0,54.5,3.134a8.313,8.313,0,0,0,.142-1.311A1.744,1.744,0,0,0,53.013,0a1.768,1.768,0,0,0-1.856,1.581c-.014.123-.028.251-.043.379a2.655,2.655,0,0,1-.161.791,6.535,6.535,0,0,1-.781,1.193l-.085.113a6.029,6.029,0,0,0-1.482,3.864" transform="translate(-44.744 0)" fill="#fff"/>
    </g>
  </g>
</svg>
