<svg xmlns="http://www.w3.org/2000/svg" xmlns:xlink="http://www.w3.org/1999/xlink" width="32.915" height="39.305" viewBox="0 0 32.915 39.305">
  <defs>
    <clipPath id="clip-path">
      <rect id="Rectangle_18" width="32.915" height="39.305" fill="#e69138"/>
    </clipPath>
  </defs>
  <g id="private-ion" transform="translate(0 0)">
    <g id="Group_21" transform="translate(0 0)" clip-path="url(#clip-path)">
      <path id="Path_21" d="M.007,28.527l0-5.009A1.762,1.762,0,0,1,1.924,21.6q11.334-.007,22.668,0a1.769,1.769,0,0,1,1.927,1.945c0,.535,0,1.07,0,1.624v.275h.36c.6-.005,1.179-.005,1.761,0a4.261,4.261,0,0,1,4.18,3.432A5.441,5.441,0,0,1,32.906,30q.014,4.857,0,9.715a4.29,4.29,0,0,1-4.588,4.559h-1.8c-.009.067-.019.128-.028.194a7.357,7.357,0,0,1-.256,1.255,6.729,6.729,0,0,1-5.506,4.858.541.541,0,0,0-.08.028l-.166.062H6.081l-.066-.024c-.194-.057-.393-.109-.592-.161a7.337,7.337,0,0,1-1.4-.459A6.637,6.637,0,0,1,.021,43.777C-.007,38.692,0,33.522.007,28.527m26.513,6.846v5.373c.133,0,.27,0,.4,0,.658.01,1.283.019,1.9-.018.388-.024.592-.455.592-.866,0-.886,0-1.775,0-2.666V30.028c0-.829-.27-1.094-1.113-1.094h-.568c-.4.005-.814.009-1.226-.009q.014,3.223,0,6.448m-23-6.841q0,7.563,0,15.126a3.358,3.358,0,0,0,2.689,3.432,4.819,4.819,0,0,0,.933.071q6.129.008,12.262,0a3.373,3.373,0,0,0,3.627-3.64V25.137c-11.944.007-15.354-.014-19.515-.014Z" transform="translate(0.001 -11.369)" fill="#e69138"/>
    </g>
  </g>
</svg>
