<svg id="search-icon" xmlns="http://www.w3.org/2000/svg" width="13.813" height="13.803" viewBox="0 0 13.813 13.803">
  <defs>
    <clipPath id="clip-path">
      <rect id="Rectangle_28" width="13.813" height="13.803" fill="#f48c11"/>
    </clipPath>
  </defs>
  <g id="Group_30" clip-path="url(#clip-path)">
    <path id="Path_35" d="M13.6,12.433c-.726-.731-1.465-1.448-2.2-2.166-.167-.163-.162-.163-.032-.353a6.168,6.168,0,0,0,1.054-4.837A6.062,6.062,0,0,0,9.594.973,5.127,5.127,0,0,0,6.822.095h-.2c-.073-.009-.149.02-.219-.019h-.25c-.071.039-.148.009-.222.019h-.2a3.307,3.307,0,0,0-.691.059A6.254,6.254,0,0,0,.162,5.091c-.048.245-.038.495-.081.739v.322a.366.366,0,0,1,0,.25v.286c.04.186.022.377.05.564a5.982,5.982,0,0,0,.933,2.431,6.211,6.211,0,0,0,6.027,2.772,6.1,6.1,0,0,0,2.8-1.095c.206-.148.2-.148.381.025.738.718,1.446,1.467,2.164,2.205a.93.93,0,0,0,.846.274.751.751,0,0,0,.6-.609.9.9,0,0,0-.281-.822M6.276,10.94a4.669,4.669,0,1,1,4.686-4.668A4.685,4.685,0,0,1,6.276,10.94" transform="translate(-0.078 -0.073)" fill="#f48c11"/>
    <path id="Path_37" d="M.079,169.557a.2.2,0,0,1,0,.25Z" transform="translate(-0.076 -163.479)" fill="#f48c11"/>
    <path id="Path_38" d="M157.459.11a.077.077,0,0,0,.005-.03h.214q.018.014.01.023a.021.021,0,0,1-.015.008h-.214" transform="translate(-151.815 -0.077)" fill="#f48c11"/>
    <path id="Path_39" d="M163.429.111a.129.129,0,0,0,.005-.031h.214c-.066.064-.145.029-.22.031" transform="translate(-157.571 -0.077)" fill="#f48c11"/>
    <path id="Path_40" d="M176.763.111c-.075,0-.154.033-.22-.031h.214c.01.005.014.011.012.019s0,.012-.006.012" transform="translate(-170.214 -0.077)" fill="#f48c11"/>
    <path id="Path_41" d="M182.53.111a.209.209,0,0,1-.006-.031h.214a.192.192,0,0,1,.006.03h-.215" transform="translate(-175.981 -0.077)" fill="#f48c11"/>
  </g>
</svg>
