<svg xmlns="http://www.w3.org/2000/svg" xmlns:xlink="http://www.w3.org/1999/xlink" width="25" height="25" viewBox="0 0 25 25">
  <defs>
    <clipPath id="clip-path">
      <rect id="Rectangle_9" width="12.122" height="13.788" fill="#fff"/>
    </clipPath>
  </defs>
  <g id="user-account-icon" transform="translate(-1243 -213)">
    <circle id="Ellipse_2" cx="12.5" cy="12.5" r="12.5" transform="translate(1243 213)" fill="#e69138"/>
    <g id="Group_14" transform="translate(1249.439 218.237)">
      <g id="Group_13" clip-path="url(#clip-path)">
        <path id="Path_10" d="M4.015,21.172a2.621,2.621,0,0,0,4.093,0c.152.125.3.246.445.364a8.6,8.6,0,0,0,2.363,1.412,1.293,1.293,0,0,1,.746.743,6.276,6.276,0,0,1,.434,3.02c-.009.115-.022.229-.04.343a.475.475,0,0,1-.407.424c-.84.135-1.68.282-2.524.385a25.992,25.992,0,0,1-3.619.158,27.736,27.736,0,0,1-5-.537.484.484,0,0,1-.442-.46,6.324,6.324,0,0,1,.4-3.347,1.266,1.266,0,0,1,.726-.724,9.225,9.225,0,0,0,2.714-1.7l.109-.089" transform="translate(0 -14.242)" fill="#fff"/>
        <path id="Path_11" d="M15.5,3.108A5.551,5.551,0,0,1,14.4,6.548a2.22,2.22,0,0,1-1.355.883,2.183,2.183,0,0,1-2.211-.879A5.04,5.04,0,0,1,9.824,4.127a4.623,4.623,0,0,1,.2-2.429A2.536,2.536,0,0,1,12.453,0a3.918,3.918,0,0,1,1.026.106,2.539,2.539,0,0,1,1.874,2.047,9.481,9.481,0,0,1,.145.955" transform="translate(-6.559 0)" fill="#fff"/>
      </g>
    </g>
  </g>
</svg>
